<svg xmlns="http://www.w3.org/2000/svg" viewBox="0 0 64 64" role="img" aria-label="TimeHub">
  <defs>
    <linearGradient id="thBg" x1="0" y1="0" x2="64" y2="64" gradientUnits="userSpaceOnUse">
      <stop offset="0%" stop-color="#6366f1"/>
      <stop offset="100%" stop-color="#4338ca"/>
    </linearGradient>
    <linearGradient id="thFace" x1="16" y1="16" x2="48" y2="48" gradientUnits="userSpaceOnUse">
      <stop offset="0%" stop-color="#ffffff"/>
      <stop offset="100%" stop-color="#eef2ff"/>
    </linearGradient>
  </defs>

  <rect width="64" height="64" rx="14" fill="url(#thBg)"/>

  <g stroke="#ffffff" stroke-opacity="0.55" stroke-width="1.6" stroke-linecap="round">
    <line x1="32" y1="6"  x2="32" y2="12"/>
    <line x1="32" y1="52" x2="32" y2="58"/>
    <line x1="6"  y1="32" x2="12" y2="32"/>
    <line x1="52" y1="32" x2="58" y2="32"/>
    <line x1="13.5" y1="13.5" x2="17.8" y2="17.8"/>
    <line x1="46.2" y1="46.2" x2="50.5" y2="50.5"/>
    <line x1="13.5" y1="50.5" x2="17.8" y2="46.2"/>
    <line x1="46.2" y1="17.8" x2="50.5" y2="13.5"/>
  </g>

  <circle cx="32" cy="32" r="17" fill="url(#thFace)" stroke="#c7d2fe" stroke-width="0.8"/>

  <g fill="#4338ca">
    <circle cx="32" cy="18.5" r="1.2"/>
    <circle cx="45.5" cy="32" r="1.2"/>
    <circle cx="32" cy="45.5" r="1.2"/>
    <circle cx="18.5" cy="32" r="1.2"/>
  </g>

  <line x1="32" y1="32" x2="32" y2="22" stroke="#4338ca" stroke-width="2.6" stroke-linecap="round"/>
  <line x1="32" y1="32" x2="40.5" y2="32" stroke="#6366f1" stroke-width="2.6" stroke-linecap="round"/>
  <circle cx="32" cy="32" r="2.4" fill="#312e81"/>
  <circle cx="32" cy="32" r="0.9" fill="#ffffff"/>
</svg>
